<!--?xml version="1.0" encoding="utf-8"?-->
<!-- Generator: Adobe Illustrator 18.1.1, SVG Export Plug-In . SVG Version: 6.00 Build 0)  -->

<svg version="1.1" id="_x32_" xmlns="http://www.w3.org/2000/svg" xmlns:xlink="http://www.w3.org/1999/xlink" x="0px" y="0px" viewBox="0 0 512 512" style="width: 256px; height: 256px; opacity: 1;" xml:space="preserve">
<style type="text/css">
	.st0{fill:#4B4B4B;}
</style>
<g>
	<path class="st0" d="M378.418,0H208.296h-13.174l-9.319,9.301L57.001,138.102l-9.301,9.309v13.175V426.1
		c0,47.357,38.534,85.9,85.9,85.9h244.819c47.348,0,85.882-38.542,85.882-85.9V85.882C464.3,38.524,425.767,0,378.418,0z
		 M432.497,426.1c0,29.875-24.212,54.096-54.078,54.096H133.6c-29.875,0-54.096-24.221-54.096-54.096V160.587h83.719
		c24.882,0,45.073-20.183,45.073-45.074V31.802h170.123c29.866,0,54.078,24.222,54.078,54.079V426.1z" style="fill: rgb(77, 182, 172);"></path>
	<path class="st0" d="M342.716,159.423c-7.668,5.367-17.004,8.537-27.052,8.537c-10.056,0-19.384-3.17-27.061-8.537
		c-13.418,5.775-21.66,15.902-26.688,24.847c-6.679,11.864-1.442,28.659,10.092,28.659c11.55,0,43.657,0,43.657,0s32.098,0,43.649,0
		c11.542,0,16.787-16.795,10.1-28.659C364.384,175.324,356.142,165.198,342.716,159.423z" style="fill: rgb(77, 182, 172);"></path>
	<path class="st0" d="M315.663,156.722c19.723,0,35.694-15.971,35.694-35.685v-8.554c0-19.696-15.971-35.694-35.694-35.694
		c-19.714,0-35.702,15.998-35.702,35.694v8.554C279.961,140.751,295.95,156.722,315.663,156.722z" style="fill: rgb(77, 182, 172);"></path>
	<rect x="139.635" y="260.373" class="st0" width="230.394" height="22.371" style="fill: rgb(77, 182, 172);"></rect>
	<rect x="139.635" y="327.488" class="st0" width="230.394" height="22.38" style="fill: rgb(77, 182, 172);"></rect>
	<rect x="139.635" y="394.61" class="st0" width="161.281" height="22.363" style="fill: rgb(77, 182, 172);"></rect>
</g>
</svg>
